<?xml version="1.0" encoding="utf-8"?>
<!-- Generator: Adobe Illustrator 27.0.0, SVG Export Plug-In . SVG Version: 6.00 Build 0)  -->
<svg version="1.1" id="Calque_1" xmlns="http://www.w3.org/2000/svg" xmlns:xlink="http://www.w3.org/1999/xlink" x="0px" y="0px"
	 viewBox="0 0 512 256" style="enable-background:new 0 0 512 256;" xml:space="preserve">
<style type="text/css">
	.st0{fill:#014F36;}
	.st1{fill:#018078;}
	.st2{fill:#FF0001;}
</style>
<g>
	<g>
		<rect x="160.6" y="151.6" class="st0" width="179.4" height="16"/>
		<g>
			<path class="st0" d="M274.7,64.2l12.1,30.3l21.4-11.3l-18.5-41.1h-27l-37.9,70.6c0,0,18.6-0.6,30.5-9.6
				C258.4,101.5,266.9,79.2,274.7,64.2L274.7,64.2L274.7,64.2z"/>
			<path class="st1" d="M308.2,83.3l-21.4,11.3c-18.3,9.4-35.7,17.6-45.1,20.2c-24.7,7.1-54.8,11.4-65.6,1.8
				c-10.2-9,13.3-46.8,57.7-55.2c7.2-1.6,11.4-1.2,11.4-1.1c0,0-3-12.9-5.4-15.6c-3.3-4.1-6.6-4.9-11.4-4.3
				c-9.6,0.6-50.5,11.5-66.6,45.5c-9,19.4,3,38.9,10.7,44.6c3.6,2.6,26.8,23.4,80.5,2.4C305.9,112.3,353.3,80,353.4,80V58.3
				C353.3,58.3,332.5,70.3,308.2,83.3z"/>
			<path class="st0" d="M294.3,114.2c2,4.6,7.7,18.2,9.1,22.1c1.9,4.3,6.6,4.3,6.6,4.2h24.7l-18.4-38.1
				C309.6,106.2,302.2,110.2,294.3,114.2z"/>
		</g>
		<path class="st2" d="M353.4,49.9c0,0-28.2,16.2-34.8,18.7c-6.1,2.4-8.4-0.8-9.1-1.9c-1.6-2.5-4.3-10.7-4.7-11.9
			c0.2,0,1.7,0.3,5.3-0.6c4.3-1.1,43.2-22.9,43.3-22.8V49.9L353.4,49.9z"/>
	</g>
	<g>
		<path class="st0" d="M77.9,218.3H64.3l-2.9,5.9H56l12.7-24.6h5.4l12.7,24.6h-6L77.9,218.3z M75.9,214.5l-4.8-9.8l-4.8,9.8H75.9z"
			/>
		<path class="st0" d="M91.7,199.7h5.3v20.6h15.6v3.9H91.7V199.7z"/>
		<path class="st0" d="M116.7,199.7h13.4c6.3,0,11.5,2.7,11.5,8.5c0,5.8-5.1,8.7-11.5,8.7H122v7.4h-5.3V199.7z M130,212.9
			c3.8,0,6.2-1.8,6.2-4.7c0-2.9-2.3-4.6-6.2-4.6h-8v9.3H130z"/>
		<path class="st0" d="M147,217.2v-17.5h22.2v3.9h-17v5.9h15.6v3.8h-15.6v3.8c0,2.1,1,3.2,3.1,3.2h14.4v3.9h-15.7
			C149.6,224.2,147,221.6,147,217.2z"/>
		<path class="st0" d="M174,220.8l2.5-3.5c3.2,2.4,7.5,3.4,11.3,3.4c3.9,0,7.1-1.2,7.1-3c0-1.9-3.5-2.6-7.6-3.5
			c-5.6-1.2-12.3-2.6-12.3-7.5c0-4.6,5.7-7.4,12.2-7.4c4.5,0,9.1,1.3,12.5,3.5l-2.5,3.5c-2.8-2.1-6.5-3.2-9.9-3.2
			c-3.5,0-6.9,1.1-6.9,2.8c0,1.6,3.2,2.3,7.1,3.1c5.7,1.2,12.8,2.6,12.8,7.9c0,4.8-5.8,7.6-12.4,7.6
			C182.8,224.7,177.6,223.2,174,220.8z"/>
	</g>
	<path class="st0" d="M215.9,199.7h13.4c6.3,0,11.5,2.7,11.5,8.5c0,5.8-5.1,8.7-11.5,8.7h-8.2v7.4h-5.3V199.7z M229.2,212.9
		c3.8,0,6.2-1.8,6.2-4.7c0-2.9-2.3-4.6-6.2-4.6h-8v9.3H229.2z"/>
	<path class="st0" d="M246.7,199.7H260c6.2,0,11.2,2.5,11.2,7.9c0,4.2-3.1,6.4-7.3,7.4l8,9.3h-6.1l-7.3-8.6H252v8.6h-5.3V199.7z
		 M259.6,211.9c3.7,0,6.1-1.5,6.1-4.2c0-2.6-2.3-4-6.1-4H252v8.2H259.6z"/>
	<path class="st0" d="M275.3,212c0-6.9,6.5-12.7,15.5-12.7c9.1,0,15.5,5.8,15.5,12.7c0,6.9-6.5,12.7-15.5,12.7
		C281.7,224.7,275.3,218.9,275.3,212z M280.7,212c0,4.9,4.1,8.9,10.1,8.9c6,0,10.1-3.9,10.1-8.9c0-4.9-4.1-8.9-10.1-8.9
		C284.8,203.1,280.7,207,280.7,212z"/>
	<path class="st0" d="M337.7,199.7l-12.2,24.6h-5.4l-12.2-24.6h6l9.2,19.4l9.2-19.4H337.7z"/>
	<path class="st0" d="M341.6,217.2v-17.5h22.2v3.9h-17v5.9h15.6v3.8h-15.6v3.8c0,2.1,1,3.2,3.1,3.2h14.4v3.9h-15.7
		C344.2,224.2,341.6,221.6,341.6,217.2z"/>
	<path class="st0" d="M375.9,206.7v17.5h-5.3v-24.6h5.3l15.1,17.5v-17.5h5.3v24.6h-5.3L375.9,206.7z"/>
	<path class="st0" d="M417.2,199.3c3.8,0,7.7,1.2,10.9,3.5l-2.5,3.2c-2.6-1.8-4.8-2.8-8.2-2.8c-5.8,0-10.3,3.6-10.3,8.9
		c0,5.3,4.5,8.9,10.3,8.9c3.5,0,5.8-1.1,8.6-3l2.5,3.2c-3.3,2.4-7.4,3.6-11.4,3.6c-8,0-15.5-4.7-15.5-12.7
		C401.7,203.9,409.2,199.3,417.2,199.3z"/>
	<path class="st0" d="M433.3,217.2v-17.5h22.2v3.9h-17v5.9h15.6v3.8h-15.6v3.8c0,2.1,1,3.2,3.1,3.2H456v3.9h-15.7
		C435.9,224.2,433.3,221.6,433.3,217.2z"/>
</g>
</svg>
